<svg version="1.2" xmlns="http://www.w3.org/2000/svg" viewBox="0 0 1806 1418" width="1806" height="1418">
	<style>
		.s0 { fill: #fefefe } 
		.s1 { fill: #a09f9d } 
		.s2 { fill: #a09e9d } 
		.s3 { fill: #a1a09f } 
		.s4 { fill: #fefefd } 
	</style>
	<path fill-rule="evenodd" class="s0" d="m-898.5 2221.89c2.97-10.37 4.01-20.01 8.84-29.96 10.77-22.18 31.18-41.12 51.51-54.52 7.32-4.84 14.76-9.43 22.58-13.41 4-2.04 9.11-3.36 12.43-6.46 2.87-8.77 2.5-19.35 4.01-28.51 3.9-23.66 8.63-47.15 13.03-70.72 11.99-64.16 28.05-128.63 46.76-191.16 6.73-22.46 12.96-45.04 20.2-67.33 2.28-7 4.53-19.59 12.87-21.75 5-1.3 11.67-0.21 16.64 0.84 9.31 1.97 22.99 6.35 26.44 16.47 2.01 5.88-0.74 12.73-2.09 18.47-3.06 12.94-6.9 25.81-10.54 38.6-26.57 93.3-49.02 187.89-67.73 283.07 4.58 1.75 13.32-4.14 17.91-5.63 13.76-4.45 28.13-7.68 42.2-10.98 39.21-9.22 79.24-15.75 119.01-21.97 12.33-1.93 24.52-4.57 36.84-6.51 6.93-1.09 15.93-1.47 22.36-4.25 3.85-5.25 5.73-12.47 8.39-18.41 6.94-15.55 13.47-31.06 19.09-47.13 5.01-14.32 9.23-28.72 12.92-43.45 3.12-12.44 4.42-25.03 6.08-37.7 8.12-61.94 1.14-135.38-49.45-178.55-44.48-37.95-106.02-39.39-161.01-30.26-75 12.44-158.55 55.01-190.11 127.89-7.97 18.4-11.81 39.55-8.45 59.52 1.12 6.68 12.38 18.87 5.69 24.66-6.06 5.26-12.92 2.01-17.42-3.3-8.11-9.55-13.52-19.56-16.57-31.75-8.28-33.14 4.1-70.15 22.24-97.71 20.79-31.58 50.26-57.04 83.48-74.88 16.78-9.01 34.08-16.71 51.97-23.27 91.9-33.66 217.18-33.56 287.2 44.41 10.78 12 20.16 25.14 27.72 39.39 34.4 64.95 30.94 142.07 13.46 211.31-3.79 15.01-8.54 30.21-14.42 44.53-2.84 6.93-8.86 15.54-9.79 22.89 17.1-2.07 35.31-9.92 51.75-15.07 12.62-3.94 28.42-7.04 39.64-14.21 3.53-2.26 5.55-7.55 7.84-10.91 4.8-7.05 10.18-13.7 15.73-20.16 15.93-18.52 38.88-34 62.3-40.98 19.28-5.74 44.69-7.65 63.23 1.78 7.63 3.87 13.99 11.32 18.98 18.11 1.17 1.6 3.87 7.02 6.13 6.84 1.85-7.79 2.61-18.95 10.09-23.82 11.36-7.41 41.67 0.66 42.4 16.46 0.22 4.92-2.13 10.44-3.3 15.16-2.75 11.1-5.94 22.12-8.38 33.29-7.52 34.55-14.26 69.87-14.32 105.35-0.02 15.63 0.36 47.63 19.73 52.95 10.17 2.8 18.55-1.93 26.56-7.62 12.63-8.97 21.72-20 31.62-31.75 15.79-18.75 27.72-41.19 39.18-62.74 6.87-12.92 14.37-25.65 17.82-40 4.41-18.31 6.05-37.34 9.27-55.89 1.18-6.81 1.11-14.45 3.56-20.93 9.74-10.55 26.59-10.81 38.99-5.12 6.14 2.82 12.11 7.55 12.8 14.73 1.19 12.48-3.38 26.6-5.36 38.87-3.96 24.67-9.3 49.09-13.2 73.77-1.79 11.36-4.46 23.22-4.27 34.76 0.79 2.24 2.98-2.52 3.4-3.36 2.82-5.64 5.24-11.55 7.88-17.27 7-15.22 13.69-30.56 21.59-45.36 4.25-7.96 9.09-15.52 13.61-23.31 21.47-36.97 64.83-94.24 114.93-71.7 19.72 8.87 29.96 29.47 33.58 49.8 6.47 36.34-2.63 74.43-7.98 110.4-2.28 15.31-6.37 32.31-2.94 47.72 1.52 6.83 4.86 14.8 12.19 16.74 19.84 5.25 37.72-16.42 49.36-29.67 12.5-14.24 22.41-30.3 32.18-46.46 17.67-29.27 33.28-58.29 39.58-92.18 2.47-13.29 5.35-26.67 8.9-39.71 1.68-6.19 2.91-12.82 8.33-16.95 5.09-3.88 13.35-3.55 19.41-3.25 3.95 0.2 7.96 0.75 11.67 2.17 4.97 1.92 12.11 5.22 14.8 10.13 1.91 3.49 0.73 8.93 0.14 12.64-1.65 10.52-5.12 20.88-7.51 31.26-9.6 41.72-17.36 85.35-17.79 128.27-0.16 14.97-1.46 38.24 15.59 45.25 10.89 4.48 21.42-3.6 29.6-9.84 20.85-15.92 36.54-38.68 49.36-61.25 19.38-34.11 30.19-73.95 52.48-106.22 15.38-22.28 36.9-41.29 61.96-51.91 9.73-4.13 20.01-7.26 30.57-8.17 10.66-0.92 21.5-1.85 32.13 0.08 8.22 1.49 16.63 3.81 23.83 8.12 37.01 22.16 28.48 70.05 5.1 98.43-29.46 35.75-81.12 46.95-124.96 46.29-2.48 8.05 1.06 20.75 2.95 28.91 9.3 40.06 42.98 63.2 83.83 57.29 58.67-8.51 103.61-58.09 131.33-107.21 3.71-6.59 9.79-14.23 11.93-21.43 2.18-7.33 0.36-15.48 1.05-23 2.41-26.57 5.57-53.4 9.84-79.76 11-67.8 27.6-136.82 57.18-199.11 17.74-37.35 48.21-93.16 97.44-86.72 50.6 6.62 48.3 75.27 40.99 112.46-14.39 73.26-47.62 141.69-92.96 200.86-16.73 21.82-33.55 44.92-55.39 61.93-1.96 3.05-1.06 7.56-1.12 11.18-0.12 8.6-0.3 17.19-0.36 25.79-0.23 32.39-0.65 69.48 12.51 99.8 6.17 14.21 20.14 28.31 36.97 23.63 17.61-4.9 31.13-19.55 42.74-32.77 23.64-26.92 41.27-59.06 56.93-91.15 5.59-11.46 10.12-23.77 16.29-34.87 4.3-2.28 12.1-0.23 15.89 2.51 5.94 6.14 0.97 16.43-1.72 22.89-7.56 18.13-15.44 36.16-24.69 53.5-4.51 8.46-8.89 17.07-14 25.19-27.61 43.89-70.84 101.06-130.59 82.76-8.4-2.57-15.81-6.94-22.58-12.47-8.51-6.96-15.66-15.8-21.17-25.28-16.27-28-13.95-57.78-21.5-87.95-10.84 14.23-19.86 29.64-32.11 42.85-42.31 45.64-100.69 77.37-164.38 66.49-31.2-5.32-59.38-22.9-76.55-49.58-5.24-8.13-9.41-18.2-11.51-27.64-0.64-2.87-0.96-14.07-3.27-15.89-0.53-0.41-0.73 1.12-1.09 1.68-13.94 31.18-40.54 67.27-71.4 83.13-27.53 14.14-61.29 10.3-80.68-15.33-9.69-12.81-14.83-28.13-16.52-43.99-1.15-10.72-0.16-21.67-2.11-32.25-8.58 6.35-14.33 21.18-20.02 30.2-8.88 14.1-20.12 27.81-32.02 39.47-10.36 10.15-21.89 19.04-35.42 24.48-37 14.9-78.63-7.26-85.29-46.88-4.05-24.09 1.33-49.32 5.24-73.07 2.15-13.06 3.26-26.4 5.6-39.4 3.58-19.85 4.77-45.58-5.92-63.18-21.57-5.58-40.24 18.56-51.34 33.67-32.73 44.58-53.26 95.67-75.98 145.67-5.3 11.65-9.54 23.75-14.71 35.45-1.68 3.81-2.83 9.75-6.06 12.58-2.39 2.08-6.94 2.12-9.91 2.32-11.02 0.75-24.06-3.29-32.75-9.98-4.18-6.07-1.86-17.25-1.68-24.32 0.43-15.93 2.9-31.44 4.55-47.25 0.72-6.88 2.31-14.27 1.17-21.16-6.61 8.09-10.56 18.52-16.18 27.32-21.78 34.07-58.47 82-105.1 70.49-25.4-6.26-41.78-28.9-47.81-53.49-2.18-8.85-3.44-18.05-4.08-27.14-0.17-2.32-0.91-13.6-2.7-12.19-21.38 43.94-58.19 97.45-113.83 90.03-6.27-0.83-11.79-3.45-17.45-6.1-8.33-3.91-15.48-9.17-21.47-16.17-7.05-8.23-12.71-18.75-16.05-29.05-8.14-25.05-6.09-55.85-0.03-81.11 1.47-6.16 4.39-12.16 5.54-18.31-5.63 0.51-11.13 4.02-16.34 5.99-8.6 3.25-17.79 5.62-26.69 7.88-10.84 2.75-21.75 5.31-32.68 7.67-4.9 1.06-11.22 1.52-15.58 4.06-5.54 7.94-9.33 17.57-14.36 25.92-12.23 20.32-25.69 40.35-40.73 58.72-59.63 72.82-141.64 135.6-235.07 156.01-8.91 1.95-17.91 3.62-26.98 4.63-48.23 5.41-121.24-2.66-133.02-61.09-1.67-8.25-2.27-16.8-1.09-25.16zm29.16 1.9c-2.14 20.51 10.54 33.89 28.92 40.38 24.67 8.7 54.52 4.12 79.32-1.61 74.59-17.23 142.28-67.66 191.97-124.64 11.67-13.37 21.8-27.49 32.37-41.72 3.84-5.16 12.25-13.41 12.75-19.98-7.97-0.44-16.68 2.37-24.47 4.05-13.85 2.99-27.76 5.73-41.67 8.47-36.02 7.1-71.78 15.14-107.47 23.76-12.11 2.92-23.85 6.8-35.68 10.71-5.27 1.74-12.28 3.02-16.87 6.01-4.33 19.68-5.89 40.8-8.25 60.83-0.8 6.77-0.69 20.17-5.58 25.3-5.33 0.51-10.96 0.46-16.22-0.64-31.03-6.49-27.92-36.55-25.85-61.51-26.73 14.35-57.57 39.05-63.27 70.59zm560.71-128.86c-1.54 19.73 0.84 67.04 32.07 57.95 4.75-1.39 9.36-4.3 13.43-7.03 5.54-3.71 10.57-8.62 15.06-13.52 26.51-28.95 43.61-66.47 57.96-102.58 5.24-13.2 12.16-27.63 15.41-41.42-4.41-1.95-8.66-4.35-12.28-7.54-2.27-3.29-1.64-7.15-3.22-10.64-1.6-3.56-6.16-7.08-9.41-9.09-4.86-3.01-11.74-2.28-17.19-1.78-16.76 1.54-32.64 11.54-44.36 23.1-30.78 30.34-41.68 71.25-47.47 112.55zm878.57-47.12c-0.69 2.74-0.91 5.49-1.07 8.3 6.53 0.79 12.64-0.79 19.09-1.44 29.41-2.96 56.97-18.34 74.33-42.29 9.73-13.42 17.08-34.51 9.02-50.51-5.84-11.58-20.53-12.17-31.5-8.68-22.86 7.29-39.12 26.91-50.44 47.17-8.41 15.06-14.32 31.01-19.43 47.45zm289.33-72.06c-0.28 1.3-1.58 4.96 1.07 5.04 1.64 0.05 4.44-4.95 5.32-6.06 5.16-6.52 10.83-12.65 16-19.17 14.05-17.72 27.1-37.1 38.29-56.74 25.55-44.81 47.13-91.39 56.61-142.46 4.78-25.79 7.73-52.92-5.79-76.39-10.37-2.65-17.62 3.7-24.17 10.93-12.56 13.85-21.18 33.3-28.48 50.36-22.94 53.6-35.74 110.87-47.13 167.87-4.39 21.99-6.24 44.92-11.72 66.62z"/>
	<path fill-rule="evenodd" class="s0" d="m1188.84 698.7c-26.27 15.37-56.32 24.86-84.77 35.35-6.91 2.54-13.98 4.88-21.06 6.94-3.93 1.14-7.98 1.58-9.65 5.55-0.89-2.15-3.16-0.61-4.97-0.18-5.24 1.23-10.49 2.5-15.69 3.88-14.33 3.8-28.99 7.3-43.52 10.25-8.23 1.67-19.16 1.74-26.65 5.54-8.45 11.6-14.51 25.52-22.45 37.61-16.42 25-33.75 49.79-53.12 72.62-101.11 119.19-228.47 217.77-384.21 250.98-66.03 14.08-144.66 15.57-204.48-20.23-38.83-23.24-70.48-69.31-62.06-116.68 2.84-15.95 4.22-31.08 11.31-46.08 30.67-64.88 99.37-102.82 162.18-130.73 102.3-45.48 212.37-67.89 322.23-86.81 29.81-5.14 59.95-9.22 89.88-13.54 13.62-1.96 29.11-2.4 42.24-6.49 9.63-9.86 14.89-27.89 20.4-40.34 12.48-28.25 24.12-56.71 33.79-86.06 6.87-20.84 12.96-41.77 18.12-63.1 27.48-113.45 28.8-256.86-58.25-346.11-13.56-13.9-29.03-25.11-45.48-35.27-58.63-36.21-130.91-47.25-198.74-47.71-143.75-0.96-285.21 44.57-410.34 113.05-40.96 22.42-78.41 50.33-111.86 82.93-22.75 22.17-43.87 46.85-57.94 75.55-11.99 24.47-19.53 52.94-14.8 80.23 1.35 7.8 3.45 15.85 6.55 23.14 2.28 5.34 6.44 11.8 5.77 17.78-1.55 4.21-8.67 9.3-13.01 10.02-9.28-1.09-18.13-9.91-24.12-16.51-17.98-19.83-25.65-44.97-27.27-71.29-5.45-88.14 48.68-160.91 111.82-216.28 50.06-43.91 108.65-76.98 169.49-103.41 140.27-60.92 299.64-91.76 452.02-68.61 63.07 9.58 127.09 28.8 180.86 63.93 127.9 83.54 174.56 240.69 159.49 386.99-5.48 53.25-17.39 106.23-34.73 156.88-4.89 14.28-9.67 28.9-15.69 42.75-1.25 2.87-6.38 12.31-5.2 14.88 20.59-5.83 41.94-9.12 62.58-15.08 54.35-15.72 107.83-36.4 153.58-70.31 23.24-17.22 42.12-39.34 56.73-64.16 5.54-9.4 8.88-30.51 20.54-33.56 9.08 0.37 13.56 10.18 13.96 18.15 0.92 18.23-4.72 36.51-11.36 53.24-23.4 58.97-78.49 100.52-132.12 130.3zm-870.55 296.61c-1.23 19.73 12.39 35.35 29.33 43.9 28.27 14.27 63.66 14.93 94.48 10.94 116.6-15.1 220.26-83.62 303.58-163.16 24.12-23.02 46.42-47.72 67.3-73.69 4.93-6.12 9.8-12.35 14.48-18.66 0.91-1.23 4.64-4.62 3.01-5.94-14.68 0.07-30.02 4.08-44.58 6.15-26.48 3.77-52.96 7.6-79.29 12.36-93.74 16.97-187.47 39.34-274.11 79.81-33.78 15.78-67.17 35.82-91.66 64.43-11.13 13-20.08 26.66-22.54 43.86z"/>
	<path fill-rule="evenodd" class="s1" d="m246.83 1089.54c4.13 4.47 8.34 9.09 11.91 14.03 46.27 56.18 128.9 70.15 197.41 69.41 52.83-0.57 105.8-14.23 155.1-32.59 105.43-39.26 198.1-102.72 276.02-183.61 35.68-37.03 68.24-78.16 96.33-121.2 11.35-17.38 19.74-44.95 44.17-44.44 1.7 4.79 0.29 10.65-0.28 15.55-1.49 12.76-3.58 25.38-5.9 38.01-3.98 21.78-6.97 44.62-15.63 65.16-11.98 28.44-32.89 53.75-51.93 77.71-112.78 141.84-284.2 257.97-471.07 259.69-76.33 0.7-162.31-18.1-209.84-83.34-14.65-20.1-27.61-48.94-26.29-74.38z"/>
	<path fill-rule="evenodd" class="s0" d="m369.32 737.58c0.83-64.01 15.64-128.85 27.82-191.48 17.15-88.17 35.82-176.09 58.54-263.03 7.73-29.63 15.14-59.32 23.27-88.84 2.88-10.46 5.56-27.41 14.43-34.69 3.8-3.13 9.57-3.1 14.18-4.05 15.17-3.11 32.32-0.62 47.07 3.78 13.89 4.14 33.56 17.79 36.1 33.14 1.66 9.96-2.87 20.93-5.16 30.52-5.25 22.01-10.64 44.3-17.05 66.01-31.08 105.15-56.52 213.55-76.65 321.33-5.89 31.5-12.67 63.41-16.1 95.28-1.29 11.95-3.07 23.84-4.34 35.8-0.49 4.58-0.11 12.07-2.25 16.08-5.01 9.37-23.48 12.73-32.56 16.27-13.53 5.27-38.33 17.02-52.53 8.7-4.36-2.56-6.87-7.17-9.54-11.29-1.92-2.95-3.18-5.99-3.76-9.48-1.28-7.7-1.58-16.26-1.47-24.05z"/>
	<path fill-rule="evenodd" class="s0" d="m376.84 1860.58c0.99-13.44 11.7-27.76 25.45-29.95 19.68-3.15 37.82 13.56 35.95 33.15-0.8 8.46-4.85 18.24-11.76 23.57-21.34 16.5-51.56-0.53-49.64-26.77z"/>
	<path fill-rule="evenodd" class="s2" d="m1073.36 746.54c1.67-3.97 5.72-4.41 9.65-5.55 7.08-2.06 14.15-4.4 21.06-6.94 28.45-10.49 58.5-19.98 84.77-35.35-3.04 6.44-3.29 14.15-4.57 21.12q-2.98 16.26-6.17 32.48-12.06 61.18-23.19 122.52c-16.03 88.41-30.61 177.07-39.13 266.53-2.23 23.37-3.94 46.84-6.23 70.21-1.55 15.84-3.89 33.06-2.18 48.93 3.75-1.21 6.9-12.11 8.45-15.54 6.54-14.54 13.56-28.84 20.16-43.35 25.42-55.83 54.79-110.24 84.27-164.01 65.96-120.35 139.12-235.92 214.51-350.47 48.19-73.22 99.51-145.26 157.49-211.08 37.53-42.6 77.2-84.46 124.26-116.7 17.68-12.11 42.03-27.8 64.38-27.01 12.99 0.47 25.65 16.3 16.17 28.32-4.12 5.23-10.57 8.89-15.8 12.89-8.6 6.59-17.06 13.39-25.3 20.41-23.06 19.67-43.21 42.24-63.73 64.42-73.02 78.9-132.97 170.61-192.43 259.83-111.62 167.5-207.35 343.48-302.73 520.51-23.28 43.2-45.91 86.76-68.73 130.2-7.45 14.18-16.7 40.42-34.71 43.39-21.53 3.55-42.43-11.46-54.86-27.73-26.39-34.58-29.45-82.05-30.34-123.91-2.37-110.34 13.86-220.42 33.02-328.82 10.9-61.62 19.25-124.02 31.91-185.3z"/>
	<path fill-rule="evenodd" class="s3" d="m1089.73 618.2c17.95-67.79 31.72-137.66 31.07-208.04-0.24-26.64-1.99-52.72-5.05-79.16-0.86-7.36-2.41-14.68-3.95-21.93-0.8-3.76-2.44-8.48-1.14-12.02 33.09 4.57 59.93 36.17 74.05 64.19 24.08 47.78 24.06 102.49 21.83 154.57-0.66 15.26-1.54 30.82-3.55 45.97-0.7 5.28 0 10.87-1.24 16.05-9.2 8.27-24.56 13.28-35.9 17.95-17.51 7.2-34.86 14.58-52.84 20.53-7.76 2.57-16.02 6.29-24.18 6.89 0.55-3.54 0.24-1.88 0.9-5z"/>
	<path fill-rule="evenodd" class="s0" d="m1276.59 1682.03c5.72-4 11.35-7.47 18.44-8.3 7.13-0.82 16.42-1.53 23.24 1.09 18.23 6.99 25.62 24.99 30.25 42.4 4.92 18.56 8.78 37.26 11.77 56.24 15.31 96.93 24.2 194.65 36.71 291.94 3.26 25.38 6.79 50.76 9.81 76.15 1.6 13.48 2.53 27.3 5.84 40.49 2.49 0.6 4.19-5.52 4.97-7.4 3.68-8.94 6.39-18.2 9.93-27.19 15.27-38.78 27.88-79.2 45.02-117.21 18.93-41.96 35.38-85.23 54-127.4 25.98-58.86 55.61-116.63 87.79-172.34 25.04-43.33 53.63-90.25 91.57-123.48 9.18-8.04 20.09-18.01 32.68-19.48 9.56-1.12 16.92 1.96 18.59 12.27-7.08 10.16-20.71 18.07-29.46 27.1-17.64 18.2-33.77 38.43-47.74 59.57-40.37 61.09-74.58 126.36-106.06 192.4-29.92 62.76-58.24 126.24-83.44 191.07-18.68 48.07-37.12 96.28-56.44 144.09-4.83 11.95-7.96 24.88-14 36.3-2.07 3.93-6.22 10.54-10.47 12.37-15.91 6.83-34.17-3.62-40.46-17.97-12.7-28.97-16.3-63.99-21.54-95.04-18.94-112.25-25.92-225.95-44.31-338.17-5.2-31.74-11.56-63.11-18.72-94.45-2.14-9.36-11.07-26-7.97-35.05z"/>
	<path fill-rule="evenodd" class="s4" d="m1613.32 2071.5c1.49-5.71 1.18-11.89 2.12-17.72 2.68-16.67 5.9-33.17 9.77-49.61 3.63-15.46 7.8-30.87 12.14-46.15 1.94-6.84 3.72-15.86 9.09-20.9 11.37-10.69 47.93-5 50.17 12.96 0.65 5.21-1.66 10.75-2.87 15.74-2.85 11.75-6.59 23.28-9.45 35.03-8.89 36.48-17.69 74.99-17.5 112.7 0.07 12.63 0.17 27.58 5.73 39.2 2.85 5.95 7.94 11.83 15.04 11.79 6.24-0.03 11.27-3.44 16.22-6.85 11.75-8.1 22.14-18.54 30.6-30.02 30.12-40.86 52.58-88.8 67.24-137.46 3.31-10.97 6.39-22.01 9.56-33.02 1.55-5.42 2.13-11.56 5.45-16.3 4.62-6.6 13.61-9.72 21.39-8.68 4.45 0.59 9.38 1.93 13.53 3.61 20.99 8.53 13.08 28.34 9.74 45.47-8.01 41.04-18.07 84.29-15.83 126.37 0.9 16.78 4.24 51.84 27.59 51.67 5.43-0.04 10.7-3.52 15.17-6.18 13.7-8.16 24.6-21.82 33.81-34.58 15.89-22.02 29.25-46.28 39.46-71.45 6.02-14.83 11.26-29.98 17.76-44.61 3.21-7.23 6.69-15.39 12.3-21.13 4.21-4.31 10.08-5.14 14.84-8.43 3.38-4.04 4.14-10.01 7.26-14.43 9.06-12.81 21.94-22.55 36.09-29.12 11.44-5.31 24.2-8.72 36.82-9.18 10.8-0.4 21.7 0.61 32.1 3.62 67.99 19.67 83.48 107.58 63.51 167.13 3.8 1.52 8.01-0.97 11.47-2.57 8.54-3.97 16.79-7.98 24.99-12.69 35.01-20.11 64.88-54.56 80.84-91.73-11.86-7.01-22.22-10.53-29.08-23.75-14.51-27.94-2.32-68.37 24.11-84.94 22.33-14 49.62-3.88 51.71 24.03 0.58 7.8 0.16 15.5-0.85 23.23-1.82 14.07-7.58 26.09-12.07 39.34 20.74-1.67 41.51-4.4 62.35-6.35 9.98-0.93 22.29-1.4 30.45 5.54 11.28 9.6 8.94 22.23 5.47 34.72-7.12 25.61-17.25 50.24-25.07 75.63-7.25 23.54-14.44 51.07-12.44 75.88 0.82 10.16 6.97 24.27 18.38 25.85 21.61 2.99 43.75-18.7 56.59-33.53 34.72-40.12 59.78-86.67 72.73-138.01 3.48-13.83 6.4-27.8 9.56-41.7 2.78-12.21 5.47-22.21 18.26-26.72 12.09-4.25 37.97-0.21 40.91 15.29 1.81 9.56-4.36 23.03-6.53 32.37-10.22 43.92-19.61 88.28-20.05 133.57-0.15 15.45-0.87 39.96 15.12 48.53 12.68 6.8 28.92-6.16 37.77-14.18 27-24.48 46.32-57.46 63.35-89.3 5.05-9.42 8.49-23.34 15.68-31.21 4.79-5.25 13.15-1.34 17.18 2.71 2.91 5.84 0.48 12.52-1.77 18.17-4.77 11.96-10.62 23.47-16.35 35-5.45 10.94-11.64 21.39-18.15 31.72-22.38 35.49-54.18 79.12-100.65 78.88-32.13-0.16-52.44-26.7-59.04-55.85-2.41-10.65-2.62-21.38-3.65-32.2-0.2-2.09 0.02-15.89-1.92-14.81-21.74 40.99-48.98 83.8-92.4 104.41-36.04 17.11-80.67 1.56-92.84-37.52-12.61-40.49 1-86.72 14.68-125.22 5.18-14.58 12.05-28.66 16.16-43.58-11.59-0.83-23.53 1.02-35.18 1.06-7.01 0.01-15.35-2.48-22.03-1.38-17.06 47.14-51.5 87.69-96.1 110.7-10.64 5.48-21.65 10.25-33.13 13.69-5.6 1.68-13.17 2-17.99 5.21-11.28 17.81-18.62 35.96-34.55 50.67-38.45 35.49-98.43 40.5-140.03 7.8-13.4-10.54-24.55-26.39-30-42.56-2.25-6.68-4.4-13.75-5.51-20.71-0.31-1.91-0.42-6.33-2.85-5.83-4.04 6.49-8.12 13.04-12.45 19.34-23.03 33.53-62.98 79.19-108.75 55.9-25.47-12.96-35.14-40.7-37.98-67.63-1.11-10.41-1.64-20.99-1.97-31.45-0.02-0.72-0.58-8.38-1.22-8.52-1.02-0.23-1.36 1.61-2.04 2.41-3.63 8.14-8.5 15.7-12.72 23.53-16.67 30.98-38.24 67.41-70.75 83.95-8.06 4.1-17.16 7.76-26.25 8.43-6.42 0.48-13.39 0.07-19.68-1.29-51.84-11.23-57.37-78.72-52.57-121.8zm399.76-4.89c1.27 29.57-0.19 60.58 17.49 86.21 3.24 4.69 7.26 9.04 11.81 12.48 32.18 24.33 69.16-10.28 80.51-39.97-3.46-1.63-8.97-1.02-12.84-1.26-7.64-0.48-15.44-1.54-22.81-3.64-31.8-9.05-55.39-27.03-74.16-53.82zm25.87-63.56c-10.29 52.73 40.03 103.83 92.8 98.23 3.04-1.81 3.87-7.43 4.85-10.64 3.53-11.5 4.68-23.38 5.47-35.34 1.83-27.82 3.82-59.59-10.38-84.91-18.5-32.97-60.23-32.98-79.9-1.4-6.25 10.03-10.01 22.7-12.84 34.06zm265.73-79.97c-0.77 10.05 0.34 22.83 10.44 28.14 3.22-0.29 5.58-10.38 6.29-13.16 2.88-11.25 10.22-33.76 1.08-43.65-13.41-0.87-16.48 18.7-17.81 28.67z"/>
	<path fill-rule="evenodd" class="s4" d="m2570.47 1860.63c0.75-13.02 9.11-26.55 21.89-30.67 18.46-5.95 41.12 8.45 40.57 28.58-0.29 10.57-4.4 21.55-13.29 27.94-21.03 15.11-50.63-0.17-49.17-25.86z"/>
</svg>