<svg version="1.2" xmlns="http://www.w3.org/2000/svg" viewBox="0 0 1169 1022" width="1169" height="1022">
	<style>
		.s0 { fill: #fefefe } 
		.s1 { fill: #939393 } 
		.s2 { fill: #959595 } 
		.s3 { fill: #686869 } 
		.s4 { fill: #999897 } 
		.s5 { fill: #969695 } 
		.s6 { fill: #9b9b9a } 
		.s7 { fill: #a2a2a1 } 
	</style>
	<path fill-rule="evenodd" class="s0" d="m-1176.63 1349.19c13.59-0.98 27.62-0.3 41.26-0.2 4.16 0.03 11.39-1.44 15.02 0.47-1.37 48.92-2.06 98.73-1.04 147.66 3.38 0.4 7.44-6.04 9.58-8.27 8.65-9.04 17.2-18.17 25.8-27.28 35.23-37.32 69.77-75.25 104.9-112.63 13.13-2.85 29.52-0.39 42.99-0.32 8.66 0.04 18.94-1.55 27.39 0.27-2.07 4.56-7.22 8.14-10.67 11.76q-11.01 11.56-22.01 23.12c-19.96 20.98-39.32 42.55-59.27 63.56-9.7 10.22-23.67 21.17-30.81 33.24 34.32 41.73 64.52 87.51 96.22 131.27 11.77 16.25 22.81 33.9 36.38 48.7-22.86-4.74-47.62 2.78-70.57-0.12-9.48-10.18-16.61-23.33-24.77-34.61-17.47-24.1-35.06-48.11-52.65-72.12-6.37-8.71-12.76-17.4-19.3-25.98-1.03-1.36-4.87-7.04-6.32-6.74-15.47 15.33-30.77 31.36-45.38 47.5-2.74 9.09-0.57 22.03-0.56 31.58 0.02 19.56-1.56 39.87 0.45 59.34-2.32 2.56-11.74 0.52-15.22 0.44-13.76-0.3-28.6-1.28-42.2 1.05-2.09-24.57 0.02-50.23-0.01-74.91-0.06-52.74-0.07-105.48-0.16-158.22-0.04-25.32 2.49-52.31-0.71-77.41q0.83-0.57 1.67-1.15z"/>
	<path fill-rule="evenodd" class="s0" d="m-797.71 1656.46c10.81-21.34 17.39-44.74 27.44-66.42 36.95-79.75 66.77-162.9 104.27-242.4 5.55-1.5 12.28-0.45 18-0.42 12.33 0.05 24.68-0.01 36.99 0.49 11.11 18.48 17.67 40.52 26.59 60.16 26.67 58.76 50.51 118.93 77.83 177.36 8.85 18.92 16.89 38.54 24.74 57.89 1.83 4.52 3.83 9.02 6.05 13.35 0.28 0.57 2.39 3.54 2.03 4.05-21.08-0.4-42.19-0.1-63.25-0.47-4.51-15.93-11.74-31.5-17.86-46.87-3.57-8.97-6.63-20-11.98-28.03-15.35 1.43-31.58-0.24-47.03-0.21-32.01 0.04-64.03 0.29-96.04 0.26-11 24.67-19.08 50.52-29.29 75.44-19.46-1.34-40.49-2.57-59.82 0.59 0.54-3.28 0.09-1.69 1.33-4.77zm111.34-128.96c-0.7 2.39-0.38 1.18-0.98 3.62 3.22 4.13 19.37 1.38 24.61 1.33 17.56-0.16 35.19-0.29 52.74 0.11 6.92 0.16 16 2.05 22.6 1.04-0.4-3.35-4.32-9.33-5.78-12.59-3.71-8.27-6.88-16.78-10.44-25.11-11.58-27.06-21.13-57.16-36.08-82.46-13.3 38.63-30.75 76.45-46.67 114.06z"/>
	<path fill-rule="evenodd" class="s0" d="m-344.69 1349.49c21.23-1.44 45.33-2.51 66.44 0.09 3.04 6.92 8.56 13.53 12.56 20.03 9.62 15.61 19.33 31.18 28.92 46.81 9.73 15.86 19.73 31.56 29.59 47.33 5.79 9.26 10.72 19.91 17.4 28.51 4.38-3.21 5.68-8.82 8.49-13.28 6.15-9.71 12.19-19.5 18.43-29.14 21.41-33.03 41.31-67.5 63.59-99.87 8.61-1.98 18.47-0.76 27.25-0.72 12.6 0.07 25.79-1.16 38.31 0.27-1.65 22.47 0.17 45.89 0.21 68.48 0.08 47.53 0.17 95.06 0.18 142.59q0 34.18-0.04 68.36c-0.01 9.37-2.23 22.73 0.51 31.69-18.91 2.15-39.02-3.38-58.07-0.48-2.04-3.09-1.03-9.29-0.97-13.03 0.17-10.17 0.2-20.34 0.29-30.52 0.33-37.56 0.06-75.13 0.1-112.68 0.02-16.68-0.2-33.44 0.45-50.11 0.08-2.08 0.46-16.34-2.04-15.4-6.45 11.73-15.2 22.4-22.32 33.79-16.86 26.93-33.88 53.85-51.42 80.35-6.02 9.09-11.87 18.31-17.67 27.54-1.88 3.01-3.73 8.58-7.2 9.86-9.56-20.47-24.75-39.25-36.55-58.51-7.8-12.73-15.9-25.28-23.95-37.85-9.03-14.09-17.34-28.64-26.43-42.69-1.89-2.93-4.24-5.75-5.87-8.82-0.84-1.6-0.59-4.5-2.36-4.88-0.25-0.06-0.75 9.72-0.86 11.17-1.01 12.75-0.12 25.96 0.08 38.75 0.64 42.69 0.17 85.43 0.19 128.13 0.01 11.06-0.26 22.11-0.43 33.15-0.04 3.09 1.4 9.5-0.38 11.94-18.15-0.8-38.89-2.6-56.83 0.28-2.25-27.8-0.29-56.54-0.29-84.44-0.02-75.02 2.67-150.56-0.08-225.52q0.39-0.59 0.77-1.18z"/>
	<path fill-rule="evenodd" class="s0" d="m246.53 466.78c-3.67 1.04-6.54 4.98-9.09 7.65-6.8 7.12-14.26 14.52-20.31 22.26-1.3 1.67-2.03 4.47-3.72 5.65-13.32 11.39-25.49 25.27-37.54 37.96-2.14 4.97-0.38 12.92-0.37 18.33q0.05 22.47 0.09 44.93 0.02 15.63 0.03 31.25 0.02 11.54 0.02 23.08c-0.01 34.42 0 89.42 44.67 96.64 6.46 1.04 13.55 2.19 20.07 1.97 0.64 5.04 1.78 11.36 0.79 16.32-51.94-0.15-103.88-0.44-155.83-0.39-16.93 0.02-33.86-0.11-50.79 0.06-8.42 0.08-17.8-0.74-26.04 0.92-1.97-4.05-0.56-12.1-0.31-16.6 1.24-2.19 6.05-1.52 8.46-1.65 6.94-0.36 14.23-0.14 20.88-2.46 19.84-6.9 31.93-27.16 36.52-46.52 5.72-24.09 4.66-48.79 4.66-73.36q0.01-49.81-0.02-99.62-0.12-165.03-0.02-330.06 0.02-26.37 0.02-52.73c0-35.26 0.32-75.59-31.1-98.96-4.48-3.33-9.81-6.7-15.25-8.14-7.87-2.07-17.07-0.75-24.62-3.34-0.48-4.96-0.17-9.72-0.35-14.66 3.29-2.08 9.81-1.04 13.58-0.92 10.38 0.3 20.76 0.12 31.14 0.06 22.63-0.12 45.75 1.25 68.31-0.71 17.68-1.53 38.59-5.04 56.2-2.4-2.33 89.74-0.32 179.91-0.32 269.72 0 40.36 0.11 80.73 0.15 121.09 0.02 22.65-0.94 45.58 0.44 68.18 7.25-4.03 13.16-14.02 18.73-20.22 12.15-13.55 24.72-26.74 37.06-40.12 32.47-35.19 65.63-69.72 97.69-105.26 16.64-18.45 41.52-37.65 50.4-61.55 5.7-15.39 3.65-35.81-12.57-43.86-7.01-3.48-15.86-2.57-23.38-4.36-1.21-4.67-1.01-8.93-0.35-13.66 3.65-3.99 9.35-1.73 14.32-1.41 12.28 0.8 24.77 0 37.08 0.03q56.64 0.18 113.28 0.22c10.49 0.01 20.98 0.07 31.47-0.2 6.07-0.16 12.41-1.65 18.41-0.18 0.51 3.7 2.23 12.44-0.89 15.32-7.93 1.43-16.13 1.04-24.09 2.54-19.13 3.58-39.23 10.58-56.15 20.21-30.68 17.44-54.5 45.18-77.66 71.24-23.57 26.52-47.58 52.89-72.44 78.19-19.72 20.06-38.4 41.17-57.47 61.84-7.3 7.91-20.17 17.42-23.79 27.68z"/>
	<path fill-rule="evenodd" class="s0" d="m123.63 1349.33c19.1-1.42 38.88-0.7 58.03-0.21-3.2 50.4-0.15 101.84-0.33 152.36-0.11 30.41-0.94 62.88 20.54 87.21 32.51 36.83 102.89 27.16 122.91-17.95 12.19-27.48 9.3-58.92 9.29-88.3-0.01-43.66 2.97-88.55-0.27-132.07 19.33-2.93 39.34-0.15 58.79-0.31-2.45 48.29-0.36 97.42-0.2 145.81 0.13 38.34-0.3 77.86-20.93 111.8-47.46 78.07-182.6 77.95-227.86-2.37-22.67-40.22-19.83-86.12-19.97-130.67-0.12-41.42-2.84-84 0-125.3z"/>
	<path fill-rule="evenodd" class="s1" d="m198.59 813.48c24.95 1.52 50.32-1.57 75.36 0.07 9.68 14.65 23.89 27.47 37.1 38.84 18.16 15.62 36.56 29.89 56.86 42.63 114.68 71.98 268.38 85.94 394.05 34.53 46.04-18.83 87.02-44.19 125.91-75.09 11.87-9.44 21.41-22.1 33.47-31.01 13.22-1.97 27.57-0.47 40.92-0.4 6.03 0.04 13.91-1.23 19.64 0.55 4.81 8.2-1.14 13.53-6.16 20.13-10.7 14.06-23.1 26.84-36.12 38.78-54.5 49.95-120.91 88.74-191.78 110.29-113.18 34.41-236.46 29.73-345.57-16.84-36.81-15.7-70.78-36.46-102.88-60.21-27.7-20.5-52.77-43.04-75.33-69.11-8.91-10.31-18.78-21.27-25.47-33.16z"/>
	<path fill-rule="evenodd" class="s2" d="m246.53 466.78c3.86 2.93 9.95 2.68 14.62 3.55 9.23 1.71 18.49 4.45 27.24 7.85 27.86 10.81 49.71 29.66 68.25 52.64 21.54 26.7 36.63 58.72 54.14 88.06 35.06 58.76 69.44 118.95 112.46 172.36 38.28 47.52 88.22 88.26 152.81 86.08 0.88 3.96 1.04 8.32 1.49 12.35-5.59 2.56-15.43 1.88-21.66 2.7-17.27 2.28-34.23 5.25-51.7 5.56-31.08 0.54-61.58-2.09-90.94-12.97-71.28-26.39-111.68-92.88-146.96-155.87-19.95-35.61-40.37-70.93-60.24-106.58-18.22-32.69-34.87-68.87-61.46-95.78-8.8-8.9-19.71-19.17-31.17-24.39 1.69-1.18 2.42-3.98 3.72-5.65 6.05-7.74 13.51-15.14 20.31-22.26 2.55-2.67 5.42-6.61 9.09-7.65z"/>
	<path fill-rule="evenodd" class="s3" d="m215.02 179.42c132.42-153.38 352.95-209.68 543.79-145.55 74.51 25.04 144.6 67.48 198.52 125.02 12.96 13.83 24.85 28.4 35.87 43.81 4.53 6.32 10.03 14.73 2.74 21.73-11.19 2.65-24.19 1.36-35.63 1.3-5.15-0.03-11.6 1.06-16.47-0.69-12.12-9.24-21.52-24.27-32.46-35.11-20.9-20.7-43.71-39.32-68.51-55.17-118.62-75.8-267.71-96.5-400.41-45.78-60.98 23.3-117.51 58.49-163.55 105-17.34 17.52-33.85 36.76-47.83 57.07-2.92 4.25-9.58 21.02-15.93 18.88-0.8-20.28-0.47-40.62-0.5-60.92-0.01-9.12-1.94-20.85 0.37-29.59z"/>
	<path fill-rule="evenodd" class="s0" d="m622.11 695.79c5.39 9.45 9.14 19.72 14.61 29.12 1.65 2.83 6.87 7.96 5.87 10.87-8.86 21.15-19.16 41.89-28.32 62.97-4.78 10.98-8.21 23.71-14.3 33.99-2.91 0.88-8.3 1.52-10.84-0.39-9.64-14.45-15.47-32.39-22.32-48.28-10.56-24.47-21.36-48.98-30.96-73.84-28.89-74.83-62.07-148.24-92.55-222.44-3.76-9.16-7.79-18.23-11.69-27.35-15.37-35.96-32.41-82.48-78.69-84.09-2.04-2.54-0.91-10.86 0.27-13.96 25.29-2.66 52.34-0.06 77.82-0.04 39.77 0.03 79.91-1.62 119.63-0.29 0.61 4.71 1.28 10.35-0.24 14.92-5.19 2.04-11.95 1.03-17.45 1.92-7.68 1.25-15.28 8.31-18.05 15.47-6.1 15.74-0.47 32.68 5.14 47.57 5.35 14.18 10.85 28.26 16.62 42.27 19.45 47.24 37.92 94.89 56.83 142.34 9.23 23.16 20.23 45.79 28.62 69.24z"/>
	<path fill-rule="evenodd" class="s4" d="m622.11 695.79c4.8-3.72 6.19-13.56 8.34-19.08 5.56-14.27 11.45-28.39 17.34-42.53 22.12-53.07 43.13-106.73 65.74-159.46 5.23 10 9.23 20.7 13.95 30.96 2.98 6.49 7.31 13.17 9.22 19.99-0.5-0.93-0.45-2.76-1.5-2.78-1.12-0.03-1.33 1.8-2 2.68-3.12 4.07-4.29 9.34-6.29 14.01-7.33 17.12-14.55 34.29-21.85 51.42-14.34 33.65-29.5 66.95-43.79 100.61-4.67 11-9.2 22.05-14.18 32.93-1.68 3.64-2.07 7.97-4.5 11.24 1-2.91-4.22-8.04-5.87-10.87-5.47-9.4-9.22-19.67-14.61-29.12z"/>
	<path fill-rule="evenodd" class="s0" d="m903.49 697.46c4.29 10.46 8.73 21.14 13.51 31.39 0.84 1.81 3.08 9.17 5.26 9.11-8.22 25.31-21.89 49.36-31.01 74.5-2.31 6.38-6.43 22.98-15.3 22.58-8.06-0.37-10.49-11.71-13.23-17.67-8.31-18.02-15.37-36.6-23.52-54.69-23.93-53.06-46.58-106.87-69.47-160.37-10.75-25.08-25.24-50.51-33.03-76.64-1.91-6.82-6.24-13.5-9.22-19.99-4.72-10.26-8.72-20.96-13.95-30.96 0.56-1.46-2.35-5.65-3.05-7.01-3.7-7.14-6.74-14.78-10-22.14-10.97-24.73-25.78-54.41-53.18-64-7.12-2.49-15.48-2.86-22.94-3.07-2.49-2.81-1.56-11.88-0.97-15.49 8.68-1.26 17.65-0.13 26.4-0.14 16.92-0.03 33.85-0.25 50.77-0.26 40.81-0.04 82.49-2.14 123.2 0.23 0.97 4.72-0.32 10.69-0.75 15.47-6.52 0.07-15.93-0.6-21.96 2.2-27.14 12.62-14.61 52.64-5.66 72.37 36.8 81.14 70.67 163.79 108.1 244.58z"/>
	<path fill-rule="evenodd" class="s5" d="m698.55 1350.11c15.16 1.83 31.59 0 46.93 0.05 4.95 0.02 13.75-1.7 18.04 0.46 12.12 34.22 21.59 69.65 32.34 104.34 11.87 38.32 24.69 76.38 36.21 114.8 1.6-0.03 4.01-10.51 4.38-12.12 3.2-13.82 8.34-27.19 12.57-40.72 17.49-55.94 38.7-110.72 55.86-166.74 16.38-0.62 35.7-2.72 51.83 0.34 18.87 53.86 37.55 107.84 56.34 161.75 5.06 14.53 9.5 29.61 15.61 43.75 1.39 3.22 2.44 12.32 5.26 14.03 7.52-17.41 10.58-38.13 16.11-56.36 10.98-36.22 22.7-72.24 34.16-108.31 5.64-17.77 9.29-39.22 18.38-55.48 14.41 0.28 28.87-0.05 43.29 0 4.61 0.01 13.48-1.7 17.23 1.1-3.56 19.86-13.02 40.13-19.45 59.27-13.25 39.48-26.38 79.01-40.04 118.36-10.21 29.42-19.72 59.09-29.7 88.58-4.59 13.58-7.51 30.31-14.16 42.92-16.7-0.59-36.27-2.86-52.73 0.12-3.34-3.49-4.13-10.14-5.71-14.67-3.67-10.51-7.03-21.13-10.76-31.62-14.47-40.75-28.77-81.58-43.57-122.22-4.02-11.04-7.67-22.22-11.76-33.24-1.84-4.96-2.1-11.05-6.15-14.79-16.41 51.08-34.62 101.75-52.44 152.38-4.96 14.08-9.95 28.2-14.63 42.37-2.2 6.71-3.6 15.63-6.94 21.72-17.39-0.56-34.73-0.31-52.12 0-26.99-77.34-52.18-155.34-78.72-232.84-8.75-25.59-15.89-52.04-25.66-77.23z"/>
	<path fill-rule="evenodd" class="s6" d="m903.49 697.46c2.99-7.49 3.88-16.07 7.12-23.75 37.67-89.45 74-180.33 106.19-271.91 12.17-34.61 37.61-89.43-4.65-113.67-9.13-5.24-18.58-3.27-28.26-5.58-0.03-4.25 0.08-8.56-0.29-12.78 6.07-2.23 13.32-0.79 19.7-0.81 11.7-0.02 23.41-0.31 35.13-0.34 42.45-0.11 84.94-0.25 127.39-0.04 0.22 4.52 0.16 9.04 0.19 13.57-17.14 4.02-31.26 5.12-46.58 15.33-21.58 14.37-32.49 37.58-42.59 60.48-9.14 20.74-17.44 41.85-25.89 62.88-28.21 70.15-55.26 140.81-84.34 210.61-10.49 25.15-20.46 50.51-31.14 75.58-4.35 10.2-7.81 21.29-13.21 30.93-2.18 0.06-4.42-7.3-5.26-9.11-4.78-10.25-9.22-20.93-13.51-31.39z"/>
	<path fill-rule="evenodd" class="s0" d="m1282.47 1494.61c1.77-23.26 8.15-46.02 18.99-66.68 9.72-18.53 22.5-34.8 38.82-47.97 70.16-56.56 183.14-46.41 236.09 29.21 11.03 15.75 19.18 33.46 23.94 52.09 4.75 18.56 7.08 37.89 5.47 57.07-5.23 62.54-45.73 117.03-104.83 138.84-83.04 30.64-184.31-11.07-210.58-97.81-6.28-20.75-9.55-43.03-7.9-64.75zm60.54-3.97c-3.93 39 8.77 80.68 41.92 104.16 38.35 27.15 95.32 23.34 129.15-9.56 17.81-17.32 27.97-41.46 30.55-65.97 3.75-35.72-6.92-74.57-35.31-98.17-10.96-9.1-24.07-16.3-37.8-20.22-60.99-17.4-122.27 27.73-128.51 89.76z"/>
	<path fill-rule="evenodd" class="s7" d="m1749.72 1350.11c13.03-0.52 25.93-0.66 38.99-0.31 5 0.13 11.87-1.28 16.42 0.66 54.34 68.42 104.41 140.72 159.9 208.25 1.55-1.05 0.2-9.92 0.16-11.83-0.22-13.02-0.19-26.04-0.17-39.06 0.08-52.27 2.41-105.36-0.33-157.55 18.98-0.91 38.24-0.95 57.24-0.2 0.3 68.84 0.53 137.73 0.55 206.59 0 34.21-1.59 68.82-0.13 102.98-15.96 0.69-33.44 1.62-49.3 0.59-4.56-3.09-8.25-10.72-11.69-15.15-8.42-10.84-16.6-21.83-24.91-32.76-29.43-38.68-59.18-77.11-88.53-115.84-9.72-12.83-19.81-25.34-29.67-38.04-1.64-2.12-8.92-12.23-10.31-11.29-1.57 51.4-0.35 103-0.33 154.43 0.01 14.31-0.13 28.64-0.02 42.96 0.03 4.07 1.53 12.35-0.5 15.81-18.79 1.29-37.98-1.79-56.7 0.39-1.21-9.72-0.25-20.05-0.28-29.86-0.07-20.18 0.02-40.36-0.02-60.54-0.12-73.26 2.27-147.05-0.37-220.23z"/>
	<path fill-rule="evenodd" class="s0" d="m2165.51 1506.38c1.33-8.44 0.4-17.3 1.65-25.84 3.91-26.81 14.14-52.18 30.16-74.01 57.55-78.43 180.16-81.83 249.61-18.44-3.65 6.61-9.68 12.11-14.22 18.14-6.06 8.06-11.87 18.14-19.28 24.96-15.92-13.52-34.39-25.6-55.02-30.43-17.45-4.09-34.35-4.51-52.02-1.37-65.59 11.65-96.77 89.3-75 148.21 7.54 20.41 20.47 36 37.61 48.99 9.11 6.9 20.72 11.72 31.82 14.27 14.77 3.39 30.31 4.39 45.3 1.87 19.41-3.26 37.9-9.4 54.7-19.77 1.64-8.52 0.22-17.91 0.22-26.57 0.01-10.53 1.48-22.1 0.07-32.52-18.29 1.99-37.6-0.22-56-0.08-5.33 0.03-16.02 2.45-20.57 0.19 1.88-15.92 1.32-33.78 0.48-49.81 1.75-2.68 5.68-2.17 8.76-2.28 7.65-0.26 15.36 0.08 23.02 0.05 33.41-0.14 66.82 0.03 100.23-0.09 1.26 1.99 0.4 6.49 0.29 8.78-0.39 8.32-0.14 16.71-0.13 25.03 0.03 24.04 0.12 48.07 0.05 72.11-0.03 9.57 2.35 22.92-0.42 32.05-21.04 15.27-42.17 28.96-67.1 37.21-66.51 22.02-145.65 8.47-190.36-48.44-9.9-12.58-18.79-27.13-23.8-42.41-6.36-19.39-9.99-39.31-10.05-59.8z"/>
</svg>