<svg version="1.2" xmlns="http://www.w3.org/2000/svg" viewBox="0 0 1812 1427" width="1812" height="1427">
	<style>
		.s0 { fill: #152a54 } 
		.s1 { fill: #888686 } 
		.s2 { fill: #142953 } 
		.s3 { fill: #8c8988 } 
		.s4 { fill: #8b8784 } 
	</style>
	<path fill-rule="evenodd" class="s0" d="m1193.35 704.66c-13.94 2.89-26.42 10.35-39.58 15.48-24.27 9.43-52.9 15.89-75.14 29.45-20.81 4.27-41.2 9.92-61.91 14.65-8.7 1.99-20.35 1.41-28.07 6.15-5.57 3.43-8.09 11.47-11.22 16.91-7.12 12.34-14.86 24.24-23.12 35.84-26.45 37.17-54.85 73.49-86.84 106.07-91.61 93.27-199.19 171.2-328.8 200.64-67.55 15.34-147.25 19.94-210.42-13.66-14.1-7.5-27.62-17.69-38.51-29.37-60.83-65.28-21.69-160.26 39.56-208.34 41.71-32.74 89.36-55.43 138.53-74.63 83.36-32.54 171.47-52.89 259.65-67.83 36.38-6.16 72.86-11.73 109.33-17.36 16.16-2.5 34.74-2.54 50.19-7.96 8.63-8.89 13.5-22.89 18.56-34.07 12.02-26.54 23.07-53.07 33.1-80.41 9.2-25.04 16.6-50.78 22.39-76.81 28.91-129.84 27.43-301.16-101.79-378.44-62.4-37.32-136.88-49.42-208.67-48.92-140.23 0.95-289.59 43.62-409.17 116.98-60.27 36.98-122.95 81.33-158.05 144.62-14.4 25.97-25.22 56.41-21.36 86.52 1.75 13.61 14.64 32.83 12.16 45.43-3.32 4.75-8.33 9.08-14.25 9.72-11.91-3.01-22.95-16.34-29.49-26.02-18.81-27.8-23.4-62.38-19.57-95.15 12.31-105.4 101.61-184.97 186.82-237.56 43.04-26.56 89.61-47.23 136.4-66.14 35.6-14.38 73.03-25.36 110.35-34.18 194.54-45.99 452.44-40.84 577.08 141.85 16.72 24.51 30.44 52.35 40.04 80.42 14.97 43.71 24.11 90.27 25.7 136.51 3.45 100.61-24.85 195.65-59.13 289.06 18.15-1.41 36.89-8.03 54.5-12.48 65.14-16.47 137.72-43.61 185.91-92.29 12.35-12.48 23.93-26.31 32.69-41.55 6.36-11.05 10.15-24.53 18.55-34.2 11.49-0.83 16.75 7.69 16.85 17.94 0.15 17.24-4.6 33.05-10.69 48.92-16.81 43.8-50.54 77.78-88.01 104.72-13.82 9.93-33.33 16.72-44.57 29.49zm-870.34 285.69c-6.62 29.47 12.79 48.94 38.72 58.36 40.05 14.55 86.41 7.62 126.64-2.14 108.23-26.23 210.06-97.48 284.78-178.69 16.75-18.21 33.82-36.36 48.8-56.09 4.69-6.17 12.21-12.16 14.93-19.37-35.13 9.71-75.14 9.56-111.25 15.9-92.7 16.25-188.09 36.25-274.11 75.62-48.51 22.2-109.38 52.7-128.51 106.41z"/>
	<path fill-rule="evenodd" class="s1" d="m250.5 1094.55c13.74 15.35 25.42 30.24 42.73 42.08 46.09 31.52 102.7 41.63 157.61 41.71 121.35 0.17 244.36-56.49 340.05-127.87 29.25-21.82 57.21-45.64 82.87-71.58 42.36-42.82 84.27-89.99 115.95-141.46 8.07-13.12 22.35-48.65 43.42-41.64-3.67 38.42-8.22 85.68-24.27 121.13-18.38 40.62-51.59 77.5-81.19 110.27-93.53 103.54-213.63 187.4-352.71 214.64-20.38 3.99-40.68 7.14-61.34 9.21-89.05 8.89-211.79-15.05-250.64-107.32-6.63-15.75-10.63-32.22-12.48-49.17z"/>
	<path fill-rule="evenodd" class="s2" d="m372.35 732.7c20.78-147.04 50.04-291.31 84.19-435.91 7.98-33.83 17.94-67.18 26.8-100.79 3.65-13.83 8.12-31.43 24.26-34.78 26.39-5.48 80.3 2.53 85.81 36.28 2.82 17.24-7.53 37.39-11.5 53.88-9.72 40.35-20.87 80.52-31.74 120.58-22.98 84.67-41.95 171.03-58.58 257.16-5.27 27.29-10.71 55.26-13.76 82.88-1.7 15.31-0.12 36.08-5.97 50.18-15.11 13.15-39.56 19.25-58.38 24.65-6.83 1.96-16.53 5.22-23.38 1.99-19.4-9.14-19.13-38.15-17.75-56.12z"/>
	<path fill-rule="evenodd" class="s3" d="m1078.63 749.59c22.24-13.56 50.87-20.02 75.14-29.45 13.16-5.13 25.64-12.59 39.58-15.48-8.69 21.08-10.09 45.93-14.5 68.22-7.57 38.33-15.31 76.61-21.79 115.15-15.26 90.91-30.96 181.85-38.52 273.74-2.83 34.41-9.95 71.29-7.7 105.74 4.7-1.23 7.51-12.88 9.15-16.83 6.23-15.11 13.51-29.71 20.26-44.6 26.57-58.7 57.3-116.33 88.61-172.6 72.65-130.52 150.6-259.64 237.05-381.5 41.63-58.68 83.08-117.92 131.41-171.4 37.45-41.44 75.02-83.85 121.65-115.35 18.18-12.28 41.64-27.93 64.42-28.24 14.42-0.2 26.33 15.33 16.68 28.28-9.4 12.63-26.88 20.41-38.68 30.79-24 21.14-45.44 45.06-67.27 68.36-72.42 77.3-131.14 169.19-190.09 256.75-113.13 168.02-207.8 345.78-303.99 523.72-23.38 43.25-44.67 87.69-68.54 130.67-7.95 14.32-16.86 38.96-35.25 41.99-20.67 3.41-40.99-11.78-52.97-27.25-26.81-34.62-30.29-81.89-30.85-124.13-1.65-125.23 17-251.14 40.47-373.91 8.95-46.83 12.7-96.89 25.73-142.67z"/>
	<path fill-rule="evenodd" class="s4" d="m1094.48 623.15c23.46-107.05 44.83-213.45 18.83-322.5 91.06 23.41 101.45 137.64 97.29 214.9-1.08 20.16 0.71 46.9-5.72 66.07-7.15 8.51-21.5 12.92-31.49 17.35-25.58 11.36-52.09 23.16-79.82 27.66q0.46-1.74 0.91-3.48z"/>
</svg>