<svg version="1.2" xmlns="http://www.w3.org/2000/svg" viewBox="0 0 1170 1017" width="1170" height="1017">
	<style>
		.s0 { fill: #0d2647 } 
		.s1 { fill: #0e2747 } 
		.s2 { fill: #102749 } 
		.s3 { fill: #0c264d } 
		.s4 { fill: #13294a } 
		.s5 { fill: #8d8b8a } 
		.s6 { fill: #6d6d6e } 
		.s7 { fill: #8d8c8b } 
		.s8 { fill: #0c254a } 
		.s9 { fill: #0d2449 } 
		.s10 { fill: #9a9694 } 
		.s11 { fill: #8e8c8b } 
		.s12 { fill: #989696 } 
		.s13 { fill: #152d4e } 
		.s14 { fill: #162d4b } 
		.s15 { fill: #102949 } 
	</style>
	<path fill-rule="evenodd" class="s0" d="m-1179.46 1344.92c19.3 0.69 39.35 1.44 58.59-0.43-0.43 33.35-0.2 66.81-0.07 100.2 0.05 14.97-3.19 34.62 0.78 48.97 17.04-11.44 31.23-33.07 45.18-48.19 30.93-33.52 62.82-66.03 92.81-100.38 15.89-0.18 31.79 0.5 47.7 0.3 5.92-0.06 17.35-1.84 22.36 1.11-7.06 14.53-27.96 28.32-39.26 40.25-27.64 29.17-53.25 61.46-82.95 88.55-0.21 3.5 3.98 7.11 6.11 9.93 6.63 8.79 13.27 17.58 19.86 26.41 25.37 33.96 48.71 69.44 74.19 103.3 7.84 10.42 15.06 21.46 23.39 31.48 1.21 1.46 8.66 9.01 7.86 10.22-16.32 0.16-32.85-0.14-49.13-0.99-7-0.37-14.8 1.63-21.55-0.07-27.4-49.52-68.54-91.82-99.76-138.99-17.12 11.28-33.1 32.02-46.62 47.52-5.78 20.61-1.19 48.72-1.36 70.17-0.05 6.22 1.88 15.42-0.42 21.26-18.41-2.02-38.63-1.71-56.97 0.78 1.9-53.05-0.19-106.55-0.26-159.64-0.05-50.47 2.06-101.35-0.48-151.76z"/>
	<path fill-rule="evenodd" class="s1" d="m-798.41 1649.98c35.54-74.68 65.17-152.55 97.95-228.51 11.13-25.79 20.72-53.33 34.02-78.04 17.39-2.43 36.87-1.03 54.42-0.49 7.05 27.4 23.44 54.97 34.93 80.9 23.42 52.81 46.81 105.74 69.59 158.82 8.08 18.85 15.8 38.18 24.65 56.67 0.98 2.04 8.94 16.68 8.08 17.32-20.51 0.46-42.75-0.14-63.42-0.89-9.31-23.44-16.72-49.74-29.37-71.58-5.34-5.57-27.27-2.19-34.98-2.31-25.49-0.42-50.98-0.39-76.47-0.42-9.46-0.01-24.3-2.78-32.86 1.18-10.26 23.95-17.77 50.09-29.59 73.22-19.74 1.15-39.82-0.55-59.72 0.68 2.24-4.9 1.35-2.7 2.77-6.55zm112.77-128.54c-1.74 4.77-1.03 2.23-2.01 7.64 32.3-0.08 65.04 1.27 97.31-0.11 1.22-4.92-5.57-14.43-7.67-19.22-8.09-18.47-16.32-37.04-23.39-55.93-4.14-11.04-8.68-22.16-13.39-32.98-0.74-1.68-3.12-9.77-4.6-10.06-1.36-0.27-1.27 2.46-1.9 3.68-10.95 36.23-29.9 71.91-44.35 106.98z"/>
	<path fill-rule="evenodd" class="s2" d="m-347 1345.2c22.16-0.09 44.33 0.67 66.45-0.79 18.06 32.54 39.95 63.56 59.65 95.18 7.34 11.79 14.49 23.69 21.71 35.56 2.85 4.67 5.83 12.39 9.61 16.05 6.07-17.13 19.67-33.73 29.43-49.07 20.2-31.76 39.67-64.13 59-96.42 14.42-2.6 31.31-0.14 46.02-0.1 6.57 0.02 14.65-1.29 20.88 0.9-1.4 64.24 0.34 128.69-0.36 192.98-0.28 25.48-0.22 50.95-0.13 76.43 0.05 12.99-1.4 27.33 0.9 40.11-3.61 1.35-10.46-0.73-14.46-0.74-13.24-0.05-32.1 4.03-44.59 1.08 3.11-53.82-0.24-108.78-0.11-162.72 0.03-14.32-0.62-28.74-0.06-43.04 0.19-4.81 2.29-12.22-0.58-15.88-26.18 32.52-48.12 71.8-69.92 107.48-6.6 10.81-13.72 21.29-20.42 32.03-2.29 3.68-5.13 10.75-9.11 12.81-23.87-37.44-46.78-75.79-70.22-113.57-5.68-9.18-11.81-18.12-16.98-27.6-1.6-2.94-1.71-8.88-5.05-8.68-2.13 0.12-1.5 9.3-1.46 11.27 0.3 13.03-1.48 26.47-1.69 39.63-0.63 40.42-0.56 80.85-0.72 121.26-0.05 11.67-0.25 23.36 0.12 35.01 0.11 3.5-1.4 9.02 0 12.13-18.84-2.92-39.04-1.96-57.98-0.01 3.48-53.85 0.31-108.89 0.21-162.86-0.09-49.17 3.05-99.39-0.14-148.43z"/>
	<path fill-rule="evenodd" class="s3" d="m243.02 461.75c-8.34 7.83-15.96 16.75-23.57 25.3-2.95 3.31-6.79 7.21-6.24 11.87-4.47-0.22-7.62 4.36-10.62 7.62-6.65 7.23-13.64 14.16-20.27 21.4-2.84 3.03-5.34 6.09-7.8 9.44-2.61 17.78-0.96 37.07-0.94 55.02q0.01 15.91-0.05 31.81c-0.14 39.62-8.71 109.06 39.17 125.69 7.73 2.69 16.99 3.62 25.11 3.64 1.57 4.62 2.35 9.88 1.16 14.67-38.59-2.68-77.98 2.61-116.75 0.79-26.53-1.24-53.28-0.83-79.89 0.07-11.35 0.39-23.43-1.03-34.6 0.63-0.19-5.87-0.04-11.7-0.17-17.57 12.1-0.86 24.2-0.65 35.27-6.26 47.46-24.08 35.19-99.44 35.04-142.65-0.35-108.9-0.07-217.81 0.07-326.71 0.06-53.67 4.01-108.85-0.21-162.34-1.89-24.05-10.5-50.17-30.04-65.83-6.77-5.43-14.82-9.09-23.38-10.45-3.85-0.61-13.43-0.41-16.23-3.63-2.33-2.68-1.53-9.81-0.73-12.79 56 0.04 112.1-4.05 168.02-3.81-2.79 93.21-0.05 186.98 0.22 280.25 0.17 58.33-4.65 118.57 0.75 176.65 5.2-1.15 9.97-10.24 13.49-14q18.51-19.78 37.1-39.48c34.32-36.33 66.83-74.55 101.68-110.33 16.98-17.44 45.64-41.28 52.13-65.68 3.48-13.11 1.1-30.76-11.31-38.4-12.44-7.67-32.11 2.45-25.63-20.47 42.29 0.6 84.72-0.01 127.05 0.08 28.66 0.06 58.01 1.67 86.57-0.68 0.27 5.25 1.45 10.33 0.93 15.64-60.79-2.72-110.38 39.72-147.93 82.09-35.71 40.28-73.87 78.06-110.29 117.65q-18.78 20.4-37.8 40.58c-6.08 6.46-11.97 15.3-19.31 20.19z"/>
	<path fill-rule="evenodd" class="s4" d="m121.84 1345.54c13.47-0.04 26.96 0.35 40.44 0.07 5.09-0.1 12.93-1.81 17.38 0.73-3.08 43.52 0.32 88.36 0.36 132.01 0.01 28.9-2.78 61.96 10.2 88.68 21.53 44.34 90.75 55.93 123.21 15.85 19.88-24.54 18.6-56.52 18.7-86.19 0.15-50.16 3.1-101.16 0.46-151.22 19.37-0.47 39.44-1.32 58.77-0.49-0.55 47.35-0.24 95.08-0.21 142.57 0.03 38.11 0.88 77.65-18.27 111.96-47.05 84.29-188.31 81.71-233.27-2.37-15.45-28.86-16.17-59.4-17.01-91.27q-1.37-51.19-1.04-102.41c0.13-19.23 2.03-38.76 0.28-57.92z"/>
	<path fill-rule="evenodd" class="s5" d="m196.34 810.44c24.65-0.61 51.93-3.49 76.37-0.62 114.29 127.87 294.28 178.28 458.53 126.51 48.91-15.41 93.74-38.89 135.15-69.06 12.11-8.82 24.59-17.87 35.34-28.33 5.39-5.25 9.86-13.09 16.49-16.79 12.39-6.9 36.51-1.6 50.21-0.88 3.84 0.2 12.17-0.27 15.04 2.56-4.24 9.37-9.77 17.99-16.73 25.6-165.58 181.33-451.09 215.09-652.94 73.4-43.17-30.31-88.4-67.84-117.46-112.39z"/>
	<path fill-rule="evenodd" class="s6" d="m212.89 175.53c21.52-26.39 49-48.61 75.81-69.28 137.55-106.08 322.64-127.88 484.6-70.89 70.09 24.67 133.27 67.65 184.62 121 12.56 13.05 24.76 26.88 34.98 41.87 3.51 5.14 9.84 14.58 3.84 20.2-11.17 7.03-40.68 6.49-53.26 2.98-11.42-8.53-19.92-22.66-30.12-32.81-21.64-21.53-45.06-40.39-70.39-57.37-112.69-75.53-255.33-93.69-384.15-52.78-68.25 21.67-128.65 60.34-179.47 110.47-16.56 16.33-32.51 34.3-46.17 53.12-4.97 6.83-10.16 14.16-14.15 21.58-0.52 0.96-3.19 6.8-4.76 4.95 0.14-30.47-5.23-62.75-1.38-93.04z"/>
	<path fill-rule="evenodd" class="s7" d="m243.02 461.75c20.93 4.76 42.96 9.79 61.83 20.51 52.24 29.67 78 87.34 107.11 137.07 29.16 49.81 59.55 99.58 93.43 146.34 26.83 37.05 59.99 77.79 103.43 95.55 14.73 6.03 30.79 9.93 46.52 12.17 6.99 1 16.31-0.15 22.67 2.52-0.03 2.76 0.44 7.8-2.44 9.38-13.85 7.61-40.4 6.89-55.92 7.9-63.16 4.09-125.67-8.27-173.09-53.24-30.29-28.73-51.8-64.32-72.71-100.02-25.9-44.22-49.92-89.45-75.19-134.03-21.87-38.57-43.57-86.13-85.45-106.98-0.55-4.66 3.29-8.56 6.24-11.87 7.61-8.55 15.23-17.47 23.57-25.3z"/>
	<path fill-rule="evenodd" class="s8" d="m622.45 695.95c4.9 10.6 10.85 26.61 21.29 32.99-9.43 24.26-22.41 47.21-32.45 71.27-3.75 8.99-6.69 26.25-15.49 31.59-7.88-1.1-12.07-12.27-14.92-18.65-8.06-18.07-16.34-36.02-24.1-54.23-33.03-77.57-64.87-155.61-96.95-233.56-17.12-41.6-31.52-89.87-59.11-125.82-7.05-9.19-16.42-17.31-27.03-22.08-6.62-2.97-15.99-3.63-21.71-8.13-4.97-3.89-4.15-8.44 0.26-11.75 48.64 1.47 97.45 0.02 146.14 0.49 12.22 0.11 24.42 0.36 36.64 0.02 3.95-0.11 11.17-1.4 14.3 0.83 0.77 4.51 1.39 9.05 2.29 13.54-4.51-0.34-9.28 0.38-13.71 1.2-35.55 6.55-28.21 43.59-17.71 69.01 22.66 54.79 44.3 109.97 66.28 165.02 11.77 29.48 25.7 58.29 35.98 88.26z"/>
	<path fill-rule="evenodd" class="s9" d="m900.63 690.34c2.1 10.94 7.94 22.17 12.73 32.17 2.85 5.94 7.35 11.63 5.58 18.38-7.55 23.11-19.44 44.74-28.6 67.21-3.68 9.04-6.46 21.75-16.3 25.84-7.81-5.4-11.14-18.37-15.11-26.62-10.22-21.23-19.01-43.09-27.93-64.87-20.41-49.8-43.31-98.65-64.62-148.08-10.5-24.35-18.91-50.09-29.93-74.06-6.58-16.35-13.84-33.1-21.38-49.07-0.78-7.25-9.1-16.84-12.35-23.75-10.25-21.79-20.99-46.24-40.51-61.4-8.69-6.76-18.51-10.16-29.25-12.05-1.94-0.34-9.71-0.08-10.68-2.29-1.09-2.48 0.29-8.36 0.59-10.87 13.22-6.78 38.03-2.27 52.89-2.27 33.63 0 67.27-0.05 100.9 0.09 13.59 0.06 31.17-3.53 44.16 0.3 0.33 3.15 2.69 10.92 1.23 13.53-5.2-0.29-11.03 0.41-16.11 1.48-36.13 7.62-19.59 55.08-10.41 76.64 22.71 53.26 46.24 106.25 70.21 158.96 8.4 18.49 16.73 36.96 24.83 55.56 3.39 7.78 9.08 16.71 10.06 25.17z"/>
	<path fill-rule="evenodd" class="s10" d="m622.45 695.95c2.05-4.98 2.05-10.52 4.05-15.55 20.96-52.79 44.98-104.38 65.31-157.45q7.46-19.5 14.88-39.01c1.64-4.3 3.65-13.65 8.38-12.7 7.54 15.97 14.8 32.72 21.38 49.07-0.7-0.85-1.33-3.36-2.09-2.57-2.27 2.36-5.77 13.39-7.7 17.26-8.33 16.69-14.64 34.67-22.18 51.76-20.78 47.13-41.63 94.39-60.74 142.18-10.44-6.38-16.39-22.39-21.29-32.99z"/>
	<path fill-rule="evenodd" class="s11" d="m697.74 1345.6c21.17 0.97 43.14 1.34 64.3-0.17 15.4 51.35 31.63 102.8 48.36 153.74 6.84 20.83 10.21 48.07 21.76 66.63 2.14-14.3 8.47-29.37 12.8-43.26 9.55-30.65 19.49-61.1 30.22-91.36 9.72-27.41 15.8-59.45 29.17-85.16 16.63-0.33 33.5 0.87 50.09-0.36 9.59 17.31 14.17 38.87 20.76 57.51 18.86 53.28 34.59 109.86 57.6 161.42 0.78 0.28 6.4-20.77 7.22-23.7 4.57-16.25 9.24-32.44 14.25-48.57 15.11-48.72 32.03-97.01 45.86-146.1 14.48-0.35 28.98 0.01 43.47-0.28 5.77-0.11 14.63-1.74 20.01 0.27-19.09 51.1-35.31 103.29-52.7 155.01-17.35 51.66-36.17 102.93-51.71 155.16-10.85 3.15-27.04-0.43-38.34-0.93-5.04-0.22-10.75 1.26-15.48-0.59-17.57-49.2-34.94-98.58-52.28-147.89-7.19-20.46-12.06-50.87-25.75-67.77-12.87 48.6-32.03 97.43-49.29 144.73-8.56 23.47-19.51 47.97-24.15 72.58-15.52 4.27-35.74-1.88-51.91-0.32-31.94-104.36-72.91-206.06-104.26-310.59z"/>
	<path fill-rule="evenodd" class="s12" d="m900.63 690.34c10.57-34.15 27.44-67.39 40.99-100.55 22.11-54.13 42.22-108.95 62.91-163.61 10.29-27.2 23.09-55.39 28.78-84 3.94-19.87 0.65-41.49-16.27-54.56-6.55-5.06-14.65-7.74-22.77-8.82-1.62-0.23-10.4-0.11-11.42-1.53-1.95-2.67-0.73-8.24 0.21-11.04 41.03-2.14 82.15-1.88 123.23-2.16 16.03-0.12 42.1-3.95 56.9 1.99 0.64 3.35 0.94 6.49 1.14 9.89-5.33 3.26-14.94 3.59-21.13 5.36-13.85 3.99-26.48 10.58-36.74 20.78-18.47 18.36-28.66 44.03-38.27 67.7-10.95 26.94-21.76 53.93-32.34 81.01-37.92 97.07-79.3 193.13-116.91 290.09 1.77-6.75-2.73-12.44-5.58-18.38-4.79-10-10.63-21.23-12.73-32.17z"/>
	<path fill-rule="evenodd" class="s13" d="m1283.91 1472.77c3.28-20.02 10.63-40.03 21.28-57.28 50.42-81.67 166.48-99.76 241.02-40.02 26.09 20.9 44.14 50.85 53.15 82.73 6.13 21.65 6.98 46.43 3.51 68.61-2.88 18.35-9.27 36.9-18.69 52.91-8.51 14.48-17.56 29.08-30.35 40.21-71.14 61.88-181.75 55.84-240.87-19.09-12.2-15.45-20.39-33.34-25.62-52.28-6.65-24.05-7.46-51.21-3.43-75.79zm58.24 9.22c-2.81 18.36-1.09 37.05 3.86 54.92 17 61.36 88.67 90.5 144.19 60.56 29.79-16.07 47.97-46.68 52.79-79.69 10.66-72.84-52.36-140.03-126.92-121.06-11.88 3.02-22.73 8.75-32.61 15.92-10.96 7.95-19.72 18.33-26.79 29.79-7.38 11.96-12.39 25.68-14.52 39.56z"/>
	<path fill-rule="evenodd" class="s14" d="m1748.92 1353.57q-0.1-3.01-0.2-6.03c17.95-1.92 37.69-2.13 55.73-1.36 13.03 14.51 24.07 32.14 36.15 47.61 29.77 38.17 59.12 76.67 88.39 115.22 10.95 14.43 21.33 32.57 34.15 45.17 1.3-6.58-0.79-13.13-0.54-19.81 0.74-19.91 0.94-39.79 0.94-59.7 0-41.89 3.96-85.64-0.34-127.29 15.68-4.5 41.57-2.53 57.88-0.88-1.57 70.37-0.48 140.97-0.32 211.38 0.05 22.43 0.14 44.85 0.18 67.29 0.02 9.53 1.97 20.55-0.12 29.88-16.14-0.56-34.92 2.55-50.63-0.27-52.8-71.21-105.45-144.97-163.95-211.6 3.95 70.4-1.9 141.35 0.12 211.79-18.89-1.84-39.6 3.51-57.95 0.79 2.02-25.23 0.27-51.22 0.19-76.53-0.23-74.76-4.54-151.05 0.32-225.66z"/>
	<path fill-rule="evenodd" class="s15" d="m2164.82 1485.09c6.36-38.31 19.38-73.1 47.62-101.07 60.57-59.96 172.39-58.36 233.75-0.11-2.24 6.74-8.88 12.67-13.27 18.13-6.38 7.94-12.05 18.38-20.39 24.33-9.81-3.26-19.21-13.46-28.81-18.32-22.43-11.34-50.28-16.2-75.19-12.55-86.11 12.6-112.56 133.37-51.55 189.26 40.58 37.18 97.22 27.53 142.06 5.11 1.94-6.18 0.19-13.88 0.01-20.27-0.38-12.84-0.98-26.37 0.24-39.13-24.84 2.25-50.3 0.78-75.24 1.83-2.41-2.78-0.78-10.45-0.7-14.2 0.27-12.62 0.57-25.29 0.69-37.89 11.66-5.55 28.92-1.62 41.71-1.53 29.92 0.21 59.95-1.35 89.81-0.33 0.64 31.08 0.53 62.21 0.79 93.32 0.12 13.31 3.75 32.47-0.62 45.05-77.02 65.81-213.87 64.95-269.05-28.4-7.78-13.16-14-27.29-17.37-42.26-4.53-20.15-6.58-40.32-4.49-60.97z"/>
</svg>